<?xml version="1.0" encoding="utf-8"?>
<!-- Generator: Adobe Illustrator 23.0.0, SVG Export Plug-In . SVG Version: 6.00 Build 0)  -->
<svg version="1.1" id="Layer_1" xmlns="http://www.w3.org/2000/svg" xmlns:xlink="http://www.w3.org/1999/xlink" x="0px" y="0px"
	 viewBox="0 0 100 100" style="enable-background:new 0 0 100 100;" xml:space="preserve">
<style type="text/css">
	.st0{fill:#1F4EA0;}
	.st1{fill:#3D6CAD;}
	.st2{fill:#FFFFFF;}
	.st3{font-family:'ComicSansMS';}
	.st4{font-size:9.3319px;}
	.st5{fill:#E50013;}
	.st6{fill:#4EB136;}
	.st7{fill:#3FAF44;}
	.st8{fill:#EEEEEF;}
</style>
<g>
	<g>
		<g>
			<rect x="26.1" y="12" class="st0" width="33.7" height="9.9"/>
		</g>
		<g>
			<rect x="21.5" y="31.7" class="st0" width="33.7" height="46.1"/>
		</g>
		<g>
			<polygon class="st1" points="55,31.7 21.4,31.7 26.2,21.8 59.8,21.8 			"/>
		</g>
	</g>
	<text transform="matrix(1 0 0 1 24.377 45.6089)" class="st2 st3 st4">MILK</text>
	<g>
		<g>
			<path class="st5" d="M41.6,71c0,9.1-6.9,14.9-15.4,14.9S10.8,80.1,10.8,71s6.9-15.7,15.4-15.7S41.6,61.9,41.6,71z"/>
		</g>
		<g>
			<ellipse transform="matrix(0.5 -0.866 0.866 0.5 -41.19 44.4879)" class="st6" cx="17.9" cy="57.9" rx="2.9" ry="7.1"/>
		</g>
	</g>
	<g>
		<path class="st7" d="M51.5,50.6c-2.4-1.7-4.2-2.4-4.9-1.7c0,0-0.1,0.1-0.1,0.1c-2.6-1.9-4.6-2.8-5.4-2.1c-0.3,0.3-0.4,0.9-0.3,1.6
			c-2.8-1.6-4.9-2.1-5.6-1.2c-0.5,0.7,0,2.4,1.5,4.5c-0.2,0-0.4,0.1-0.5,0.3c-0.4,0.6,0.2,2,1.5,3.9c-0.1,0-0.2,0.1-0.2,0.2
			c-0.4,0.6,0.1,1.9,1.4,3.7c-0.2,0-0.3,0.1-0.4,0.3c-0.4,0.6,0.2,2,1.5,3.9c-0.4,1.7,4.2,7.5,10.7,13.2c2.9,2.5,5.7,4.7,8,6.2
			c1.3,1.1,2.7,1.9,4.2,2.3c0.8,0.3,1.4,0.4,1.7,0.2c2.3,0.1,4.7-0.8,6.4-2.6c2-2.2,2.8-5.2,2.3-8c0.2-2.4-3.3-8.3-8.6-14.3
			C59.2,54.4,53.6,50.1,51.5,50.6z"/>
	</g>
	<g>
		<path class="st8" d="M56.4,58.7c-1.8-1.3-3.2-1.8-3.7-1.3c0,0-0.1,0.1-0.1,0.1c-2-1.5-3.5-2.1-4.1-1.6c-0.2,0.2-0.3,0.6-0.2,1.2
			c-2.2-1.2-3.7-1.6-4.2-0.9c-0.4,0.6,0,1.8,1.1,3.4c-0.2,0-0.3,0.1-0.3,0.2c-0.3,0.4,0.1,1.5,1.2,3c-0.1,0-0.1,0.1-0.2,0.1
			c-0.3,0.4,0.1,1.4,1,2.8c-0.1,0-0.2,0.1-0.3,0.2c-0.3,0.4,0.1,1.5,1.1,2.9c-0.3,1.3,3.2,5.7,8.1,10c2.2,1.9,4.3,3.5,6.1,4.7
			c0.9,0.9,2,1.4,3.2,1.7c0.6,0.2,1,0.3,1.3,0.2c1.8,0.1,3.5-0.6,4.9-2c1.5-1.6,2.1-3.9,1.8-6.1c0.2-1.8-2.5-6.3-6.5-10.9
			C62.2,61.7,57.9,58.4,56.4,58.7z"/>
	</g>
	<g>
		<g>
			<path class="st7" d="M76.9,34.5c-1.8-3.3-3.7-5.2-5.2-4.8c-0.1,0-0.2,0.1-0.2,0.1c-2-3.8-4-5.9-5.6-5.5c-0.7,0.2-1.2,0.8-1.6,1.7
				c-2.5-3.5-4.9-5.3-6.4-4.6c-1.3,0.6-1.7,2.9-1.5,6.2c-0.3-0.1-0.6-0.1-0.8,0.1c-1,0.5-1.3,2.5-0.9,5.5c-0.1,0-0.3,0-0.4,0.1
				c-1,0.4-1.2,2.3-0.9,5.1c-0.3-0.1-0.5,0-0.7,0.1c-1,0.4-1.3,2.5-0.9,5.4C49.9,45.6,51.7,55,56,65.6c1.9,4.6,4,8.8,5.9,11.9
				c0.8,2.1,2.1,3.8,3.8,5.1c0.8,0.8,1.5,1.2,2.1,1.3c3,1.4,6.7,1.7,10.4,0.5c4.3-1.4,7.5-4.5,9-8.2c2-2.7,1.9-11.7-0.5-21.9
				C84.1,43.5,79.9,35.1,76.9,34.5z"/>
		</g>
		<g>
			<path class="st8" d="M77.2,47c-1.4-2.5-2.8-3.9-3.9-3.6c-0.1,0-0.1,0-0.2,0.1c-1.5-2.9-3-4.5-4.2-4.2c-0.5,0.1-0.9,0.6-1.2,1.3
				c-1.9-2.6-3.7-4-4.9-3.5c-1,0.4-1.3,2.2-1.1,4.7c-0.2-0.1-0.4,0-0.6,0c-0.8,0.3-1,1.9-0.7,4.2c-0.1,0-0.2,0-0.3,0.1
				c-0.7,0.3-0.9,1.7-0.7,3.9c-0.2,0-0.4,0-0.6,0c-0.8,0.3-1,1.9-0.7,4.1c-1.4,1.4-0.1,8.5,3.2,16.5c1.4,3.5,3,6.6,4.5,9
				c0.6,1.6,1.6,2.9,2.9,3.8c0.6,0.6,1.1,0.9,1.6,1c2.3,1.1,5.1,1.3,7.9,0.4c3.2-1.1,5.7-3.4,6.9-6.2c1.5-2,1.4-8.9-0.4-16.6
				C82.7,53.8,79.5,47.4,77.2,47z"/>
		</g>
	</g>
</g>
</svg>
