<?xml version="1.0" encoding="utf-8"?>
<!-- Generator: Adobe Illustrator 23.0.0, SVG Export Plug-In . SVG Version: 6.00 Build 0)  -->
<svg version="1.1" id="Layer_1" xmlns="http://www.w3.org/2000/svg" xmlns:xlink="http://www.w3.org/1999/xlink" x="0px" y="0px"
	 viewBox="0 0 100 100" style="enable-background:new 0 0 100 100;" xml:space="preserve">
<style type="text/css">
	.st0{fill:#6BC6DD;}
	.st1{fill:#48B038;}
	.st2{fill:#0D6B37;}
	.st3{fill:#372A55;}
	.st4{fill:#73308D;}
	.st5{fill:#F7F7F7;}
	.st6{fill:#E50013;}
</style>
<g>
	<path class="st0" d="M67.4,65.8c4.3-2.3,2.7-9.4,2-10.2C68.7,54.8,67,60,65,58.1c-2-2-1.1-17.2,0.6-20.3s-3.1-13-5.1-10.5
		c-2,2.6-6.8,8.8-10.4,10.4c-3.5,1.6-4.7-5.6-2.9-12.9c0.9-3.3-1.5-8.6-4.3-13.4c-10,1.6-19.3,7.2-25.5,16.2
		C5.7,45,10.3,68.6,27.7,80.4c11,7.4,24.4,8.3,35.8,3.7C57.8,75.8,64,67.6,67.4,65.8z"/>
	<circle class="st1" cx="46.8" cy="48.8" r="4"/>
	<g>
		<path class="st2" d="M43.6,11.3c-0.2,0-0.4,0-0.7,0.1c1.2,2.1,2.4,4.3,3.2,6.4C45.9,14.9,44.9,12.7,43.6,11.3z"/>
		<path class="st1" d="M81.4,62.6c2.1-2.8,1.7-12.7,0.8-15.1c-0.9-2.4,1.3-7.1-0.4-9.1c-1.7-2-2.4,4.8-9.3-9.1
			c-5-10-12.2-8.9-15.9-7.6c-0.5,2-1.2,4-2.3,5.7c-4.5,6.7-5.7,10.4-5.7,10.4s-0.7-0.5-1.5-1.6c0.6,1.4,1.6,2.1,2.9,1.5
			c3.5-1.6,8.3-7.8,10.4-10.4c2-2.6,6.9,7.4,5.1,10.5S62.9,56.1,65,58.1c2,2,3.7-3.3,4.4-2.5c0.7,0.8,2.3,7.9-2,10.2
			c-3.4,1.8-9.6,10-3.9,18.3c6.7-2.7,12.7-7.4,17.1-13.9c0.3-0.5,0.6-1,0.9-1.4C80.7,67.2,80,64.5,81.4,62.6z"/>
		<path class="st2" d="M47.3,24.8c0.5-1.9-0.1-4.4-1.2-7.1c0.1,1.9,0,4.2-0.7,6.7c-1.6,5.9,0.3,9.8,1.8,11.8
			C46.1,33.8,46.1,29.3,47.3,24.8z"/>
		<path class="st2" d="M54.3,27.4c1.2-1.7,1.9-3.7,2.3-5.7c-1.4,0.5-2.3,1.1-2.3,1.1L54,11.2c-3.5-0.5-7-0.4-10.4,0.1
			c1.4,1.4,2.3,3.6,2.5,6.4c1.1,2.7,1.6,5.2,1.2,7.1c-1.2,4.5-1.1,9.1-0.1,11.4c0.8,1,1.5,1.6,1.5,1.6S49.8,34.1,54.3,27.4z"/>
		<path class="st2" d="M70.3,17.4c-4.1-2.8-8.5-4.6-13.1-5.6c0.2,2.2,0.3,6.2-0.6,10c3.7-1.4,10.9-2.4,15.9,7.6
			c6.9,13.9,7.7,7,9.3,9.1c1.7,2-0.6,6.8,0.4,9.1c0.9,2.4,1.3,12.3-0.8,15.1c-1.4,1.9-0.7,4.7,0,6.2C92,51.5,87.2,28.8,70.3,17.4z"
			/>
		<path class="st2" d="M56.7,21.8c0.9-3.9,0.8-7.8,0.6-10c-1.1-0.2-2.1-0.4-3.2-0.6l0.3,11.7C54.4,22.9,55.2,22.3,56.7,21.8z"/>
	</g>
	<path class="st1" d="M57.2,21.6c0,0-5.2,2.2-7.1,5.8S48,37.2,48,37.2s0.9,1.2,1.7,0.3s8.5-14.1,8.1-14.9
		C57.4,21.9,57.2,21.6,57.2,21.6z"/>
	<path class="st1" d="M47.4,44.9c0,0,2.4,3.2,0.6,5.8"/>
	<path class="st3" d="M41.2,50.6c0,0-6.1-3.2-11.3,2.5c0,0-2.3,2.8-0.8,8.7c0,0,0.3,1.1,0.6,0.5c0.4-0.9,1.8-6.7,5.4-6s3.9,1,3.9,1
		L41.2,50.6z"/>
	<path class="st3" d="M49.5,56.7c0,0,4.8,4.8,1,11.5c0,0-2,3-8.1,3.4c0,0-1.2,0.1-0.6-0.5c0.7-0.7,5.9-3.7,4.1-6.9
		c-1.8-3.2-2.1-3.4-2.1-3.4L49.5,56.7z"/>
	<ellipse transform="matrix(0.592 -0.806 0.806 0.592 -23.8066 58.5969)" class="st4" cx="46" cy="52.8" rx="13.8" ry="6.2"/>
	<circle class="st5" cx="49.3" cy="48.3" r="2.4"/>
	<ellipse transform="matrix(0.592 -0.806 0.806 0.592 -34.3316 56.8458)" class="st3" cx="39" cy="62.3" rx="9.1" ry="0.9"/>
	<path class="st6" d="M37.6,69.9c0,0-0.2-2.3-1.6-0.7c-1.6,1.9-3,1.4-3.2,1.3c-0.1-0.2-1-1.3,0.3-3.4c1.1-1.8-1.1-1.3-1.1-1.3
		s-3.8,1-5,5.3c-1.1,3.9,0,6.7,0.1,7.1l0,0c0,0,0,0,0,0c0,0,0,0,0,0l0,0c0.5,0,3.4,0.2,6.8-2C37.9,73.8,37.6,69.9,37.6,69.9z"/>
</g>
</svg>
