<?xml version="1.0" encoding="utf-8"?>
<!-- Generator: Adobe Illustrator 23.0.0, SVG Export Plug-In . SVG Version: 6.00 Build 0)  -->
<svg version="1.1" id="Layer_1" xmlns="http://www.w3.org/2000/svg" xmlns:xlink="http://www.w3.org/1999/xlink" x="0px" y="0px"
	 viewBox="0 0 100 100" style="enable-background:new 0 0 100 100;" xml:space="preserve">
<style type="text/css">
	.st0{fill:#BAB9B9;}
	.st1{fill:#A9C33E;}
	.st2{fill:#B9CC5F;}
	.st3{fill:#A0BE41;}
	.st4{fill:#434444;}
	.st5{fill:#656666;}
	.st6{fill:#7EA642;}
	.st7{fill:#E6E9AB;}
	.st8{fill:#FFFFFF;}
</style>
<path class="st0" d="M19.14,60.97c0,0-4,0.22-6.8,0c-2.8-0.22-7.4-1.56-7.4-1.56s-1.2-0.23-1.2,0c0,0.23,5.98,2.68,6.89,2.9
	c0.91,0.21,8.52,0,8.52,0V60.97z"/>
<path class="st0" d="M82.06,60.97c0,0,4,0.22,6.8,0c2.8-0.22,7.4-1.56,7.4-1.56s1.2-0.23,1.2,0c0,0.23-5.98,2.68-6.89,2.9
	c-0.91,0.21-8.52,0-8.52,0V60.97z"/>
<g>
	<path class="st1" d="M18.53,35.84c-0.22,3.51,14.07,7.45,31.95,8.81c17.91,1.36,32.65-0.38,32.92-3.89
		c0.02-0.22-0.02-0.43-0.12-0.65c-2.81,1.89-7.63,3.24-15.41,3.56C37.81,44.93,22.31,37.86,18.53,35.84z"/>
	<path class="st2" d="M51.45,31.93c-17.91-1.36-32.65,0.38-32.92,3.89c0,0.01,0,0.01,0,0.02c3.77,2.02,19.27,9.09,49.35,7.83
		c7.78-0.33,12.6-1.67,15.41-3.56C81.89,36.77,68.26,33.21,51.45,31.93z"/>
</g>
<ellipse transform="matrix(0.1055 -0.9944 0.9944 0.1055 13.0955 89.6482)" class="st3" cx="56.38" cy="37.54" rx="2.52" ry="9.13"/>
<path class="st4" d="M59.61,31.67c-0.14-3.23-3.9-2.22-7.91-2.53c-4.01-0.3-6.15-1.27-6.79,1.66c-0.25,3.31,2.75,7.81,6.76,8.12
	C55.67,39.23,59.36,34.98,59.61,31.67z"/>
<ellipse transform="matrix(0.0758 -0.9971 0.9971 0.0758 17.2785 80.8553)" class="st5" cx="52.26" cy="31.11" rx="3.82" ry="7.37"/>
<g>
	<path class="st2" d="M29.99,70.68H65.9l1.86-2.54l-0.39-12.37H18.82c-0.17,0-0.33-0.03-0.49-0.05v7.45c0,0.77,0.08,1.53,0.24,2.26
		C23.36,70.95,29.99,70.68,29.99,70.68z"/>
	<path class="st3" d="M67.38,55.77l0.39,12.37l-1.86,2.54H29.99c0,0-6.63,0.27-11.43-5.25c1.05,5.01,5.52,8.81,10.83,8.81h42.91
		c6.09,0,11.07-4.98,11.07-11.07v-7.45c-0.16,0.02-0.32,0.05-0.49,0.05H67.38z"/>
	<path class="st6" d="M67.26,52.23l-0.11-3.54H18.82c-1.95,0-3.54,1.59-3.54,3.54c0,1.78,1.33,3.25,3.05,3.49v-3.49H67.26z"/>
	<path class="st6" d="M86.42,52.23c0-1.95-1.59-3.54-3.54-3.54H67.15l0.11,3.54h16.11v3.49C85.09,55.48,86.42,54.01,86.42,52.23z"/>
	<path class="st6" d="M67.38,55.77l-0.11-3.54H18.33v3.49c0.16,0.02,0.32,0.05,0.49,0.05H67.38z"/>
	<path class="st6" d="M67.26,52.23l0.11,3.54h15.51c0.17,0,0.33-0.03,0.49-0.05v-3.49H67.26z"/>
</g>
<path class="st7" d="M31.35,68.95L31.35,68.95c-1.12,0-2.03-0.91-2.03-2.03v-7c0-1.12,0.91-2.03,2.03-2.03h0
	c1.12,0,2.03,0.91,2.03,2.03v7C33.38,68.03,32.47,68.95,31.35,68.95z"/>
<ellipse transform="matrix(0.1055 -0.9944 0.9944 0.1055 13.9244 77.6934)" class="st8" cx="50.15" cy="31.11" rx="1.51" ry="3.05"/>
</svg>
