<?xml version="1.0" encoding="utf-8"?>
<!-- Generator: Adobe Illustrator 23.0.0, SVG Export Plug-In . SVG Version: 6.00 Build 0)  -->
<svg version="1.1" id="Layer_1" xmlns="http://www.w3.org/2000/svg" xmlns:xlink="http://www.w3.org/1999/xlink" x="0px" y="0px"
	 viewBox="0 0 100 100" style="enable-background:new 0 0 100 100;" xml:space="preserve">
<style type="text/css">
	.st0{fill:#1D2087;}
	.st1{fill:#00A0E8;}
	.st2{fill:#F7F7F7;}
	.st3{fill:#E50013;}
</style>
<g>
	<path class="st0" d="M48,30.3c0,0-13.6-7.1-25.3,5.6c0,0-5.1,6.4-1.9,19.6c0,0,0.7,2.5,1.4,1c0.9-2,4-15.2,12.1-13.6
		c8.1,1.6,8.8,2.2,8.8,2.2L48,30.3z"/>
	<path class="st0" d="M66.6,43.9c0,0,10.9,10.9,2.2,25.8c0,0-4.5,6.8-18.1,7.7c0,0-2.6,0.1-1.4-1c1.6-1.5,13.3-8.4,9.3-15.6
		s-4.7-7.8-4.7-7.8L66.6,43.9z"/>
	<ellipse transform="matrix(0.592 -0.806 0.806 0.592 -4.4556 61.6976)" class="st1" cx="58.7" cy="35.2" rx="31" ry="13.9"/>
	<circle class="st2" cx="66.1" cy="25.1" r="5.3"/>
	<ellipse transform="matrix(0.592 -0.806 0.806 0.592 -28.125 57.7596)" class="st0" cx="43" cy="56.7" rx="20.4" ry="2"/>
	<path class="st3" d="M40,73.8c0,0-0.5-5.2-3.6-1.5c-3.6,4.2-6.6,3.1-7.1,2.9c-0.3-0.4-2.3-3,0.7-7.6c2.5-4-2.5-2.9-2.5-2.9
		S19,66.8,16.3,76.4c-2.4,8.8-0.1,15,0.3,16l0,0.1c0,0,0,0,0.1,0c0,0,0,0.1,0,0.1l0-0.1c1.1,0.1,7.6,0.5,15.3-4.5
		C40.5,82.5,40,73.8,40,73.8z"/>
</g>
</svg>
