<?xml version="1.0" encoding="utf-8"?>
<!-- Generator: Adobe Illustrator 23.0.0, SVG Export Plug-In . SVG Version: 6.00 Build 0)  -->
<svg version="1.1" id="Layer_1" xmlns="http://www.w3.org/2000/svg" xmlns:xlink="http://www.w3.org/1999/xlink" x="0px" y="0px"
	 viewBox="0 0 100 100" style="enable-background:new 0 0 100 100;" xml:space="preserve">
<style type="text/css">
	.st0{fill:#656666;}
	.st1{fill:#F5C8C8;}
	.st2{fill:#EB9492;}
	.st3{fill:#CAC9CA;}
	.st4{fill:#CBCACB;}
	.st5{fill:#DE6664;}
</style>
<circle class="st0" cx="39.2" cy="50.6" r="28.7"/>
<g>
	<path class="st1" d="M39.2,27.7c-12.7,0-22.9,10.3-22.9,22.9c0,4,1,7.7,2.8,10.9l31.1-31.1C46.9,28.7,43.2,27.7,39.2,27.7z"/>
	<path class="st2" d="M50.1,30.4L19,61.5c3.9,7.2,11.5,12,20.2,12c12.7,0,22.9-10.3,22.9-22.9C62.2,41.9,57.3,34.3,50.1,30.4z"/>
</g>
<rect x="9.9" y="68.4" class="st3" width="57.1" height="5.2"/>
<path class="st0" d="M68.9,71.1c0,7.6-13.6,13.8-30.4,13.8S8.1,78.7,8.1,71.1"/>
<rect x="78.7" y="49.6" class="st4" width="10.6" height="12.9"/>
<path class="st0" d="M87.1,80.6h-6.2c-1.8,0-3.3-1.5-3.3-3.3V58.7h12.8v18.7C90.4,79.1,88.9,80.6,87.1,80.6z"/>
<path class="st5" d="M79.8,13.8c-0.4-0.4-1.1-0.1-1.1,0.4v9.2v21.5c0,0.3,0.3,0.6,0.6,0.6h9.3c0.3,0,0.6-0.3,0.6-0.6V24.5
	c0-0.7-0.3-1.3-0.7-1.8L79.8,13.8z"/>
<rect x="77.6" y="34.1" class="st0" width="12.8" height="19.4"/>
</svg>
