<?xml version="1.0" encoding="utf-8"?>
<!-- Generator: Adobe Illustrator 23.0.0, SVG Export Plug-In . SVG Version: 6.00 Build 0)  -->
<svg version="1.1" id="Layer_1" xmlns="http://www.w3.org/2000/svg" xmlns:xlink="http://www.w3.org/1999/xlink" x="0px" y="0px"
	 viewBox="0 0 100 100" style="enable-background:new 0 0 100 100;" xml:space="preserve">
<style type="text/css">
	.st0{fill:#DF8B2E;}
	.st1{fill:#EDA42D;}
	.st2{fill:#7EA642;}
	.st3{fill:#EAA645;}
	.st4{fill:#FCE9CA;}
	.st5{fill:#E9743E;}
</style>
<path class="st0" d="M79.38,23.7C82,36.72,84.21,67.91,49.49,80.12c2.81,0.79,5.77,1.22,8.84,1.22C76.37,81.34,91,66.72,91,48.67
	C91,38.65,86.48,29.69,79.38,23.7z"/>
<g>
	<path class="st1" d="M79.38,23.7c-1.17-0.99-2.42-1.87-3.72-2.68c-0.16,0.19-0.34,0.38-0.56,0.59c-6.63,6.29-19.22,4.95-19.22,4.95
		l5.69-10.37C60.5,16.07,59.43,16,58.33,16c-18.04,0-32.67,14.63-32.67,32.67c0,14.98,10.08,27.59,23.83,31.45
		C84.21,67.91,82,36.72,79.38,23.7z"/>
	<path class="st0" d="M75.11,21.6c0.21-0.2,0.4-0.4,0.56-0.59c-4.16-2.62-8.94-4.33-14.09-4.84l-5.69,10.37
		C55.88,26.55,68.48,27.9,75.11,21.6z"/>
</g>
<path class="st2" d="M55.02,26.67c0,0,2.47-18.23,20.23-18.01C75.25,8.66,73,26.02,55.02,26.67z"/>
<circle class="st0" cx="36.68" cy="46.2" r="2.53"/>
<circle class="st0" cx="51.04" cy="55.67" r="2.14"/>
<circle class="st0" cx="64.33" cy="41.91" r="3.37"/>
<path class="st3" d="M68.7,63.17c-0.45,16.28-14,29.12-30.28,28.67c-16.28-0.45-29.12-14-28.67-30.28"/>
<path class="st4" d="M66.26,63.03c-0.41,14.93-12.84,26.71-27.78,26.3c-14.93-0.41-26.71-12.84-26.3-27.78"/>
<path class="st5" d="M34.8,62.12L13.67,61.5c0,0,0.38,13.33,8.4,18.14L35.4,63.44C35.82,62.92,35.47,62.14,34.8,62.12z"/>
<path class="st5" d="M37.64,64.86l-11.88,17c0,0,13.94,7.51,24.71,1.03L39.05,64.93C38.79,64.33,37.95,64.29,37.64,64.86z"/>
<path class="st5" d="M41.49,63.96l12.29,16.78c0,0,10.69-8.5,9.71-17.8L42.3,62.4C41.49,62.38,41,63.3,41.49,63.96z"/>
</svg>
