<?xml version="1.0" encoding="utf-8"?>
<!-- Generator: Adobe Illustrator 23.0.0, SVG Export Plug-In . SVG Version: 6.00 Build 0)  -->
<svg version="1.1" id="Layer_1" xmlns="http://www.w3.org/2000/svg" xmlns:xlink="http://www.w3.org/1999/xlink" x="0px" y="0px"
	 viewBox="0 0 100 100" style="enable-background:new 0 0 100 100;" xml:space="preserve">
<style type="text/css">
	.st0{fill:#231F20;}
	.st1{fill:#DA5F5E;}
	.st2{fill:#E67272;}
	.st3{fill:#F1ADA8;}
	.st4{fill:#EB9492;}
</style>
<path class="st0" d="M23,79h-1.5c-1.3,0-2.4-1.1-2.4-2.4V67c0-1.3,1.1-2.4,2.4-2.4H23c1.3,0,2.4,1.1,2.4,2.4v9.5
	C25.4,77.9,24.3,79,23,79z"/>
<path class="st0" d="M78.9,79h1.5c1.3,0,2.4-1.1,2.4-2.4V67c0-1.3-1.1-2.4-2.4-2.4h-1.5c-1.3,0-2.4,1.1-2.4,2.4v9.5
	C76.5,77.9,77.6,79,78.9,79z"/>
<g>
	<path class="st1" d="M50,69.1c38.3,0,37.5-10.6,37.5-10.6l-2.2-22.9c-1.7-0.5-3.6-0.8-5.5-0.8H21.2c-2.1,0-4.1,0.3-5.9,0.9
		l-2.8,22.4C12.4,58.1,12.4,69.1,50,69.1z"/>
	<path class="st2" d="M85.3,35.6l2.2,22.9c0,0,0.8,10.6-37.5,10.6c-37.5,0-37.5-11-37.5-11l2.8-22.4C9.5,37.6,5.4,42,5.4,47.1V58
		c0,6.7,7.1,12.3,15.8,12.3h58.7c8.7,0,15.8-5.5,15.8-12.3V47.1C95.6,41.9,91.3,37.4,85.3,35.6z"/>
</g>
<g>
	<path class="st3" d="M83.4,38.9v-2c0-8.7-6.4-15.8-14.2-15.8H31.7c-7.8,0-14.2,7.1-14.2,15.8v1.5c7.5,1.3,20.7,3.3,33,3.5
		C61.8,42.1,74.9,40.3,83.4,38.9z"/>
	<path class="st4" d="M50.5,41.9c-12.3-0.3-25.4-2.2-33-3.5v2.9c0,8.7,0.8,15.8,8.6,15.8h50.9c7.8,0,6.4-7.1,6.4-15.8v-2.4
		C74.9,40.3,61.8,42.1,50.5,41.9z"/>
</g>
<g>
	<path class="st3" d="M82.2,46.6H18.8c-2.4,0-6.2,8.1-7.2,10.4h76.8C87.2,53.8,84.3,46.6,82.2,46.6z"/>
	<path class="st4" d="M11.6,57c-0.2,0.4-0.3,0.6-0.3,0.6c0,4.9,6.5,8.3,11.4,8.3h55.5c4.9,0,10.7-2.4,10.7-7.3c0,0-0.2-0.6-0.6-1.6
		H11.6z"/>
</g>
<circle class="st2" cx="34.1" cy="31.5" r="2"/>
<circle class="st2" cx="65.6" cy="31.5" r="2"/>
</svg>
