<?xml version="1.0" encoding="utf-8"?>
<!-- Generator: Adobe Illustrator 23.0.0, SVG Export Plug-In . SVG Version: 6.00 Build 0)  -->
<svg version="1.1" id="Layer_1" xmlns="http://www.w3.org/2000/svg" xmlns:xlink="http://www.w3.org/1999/xlink" x="0px" y="0px"
	 viewBox="0 0 100 100" style="enable-background:new 0 0 100 100;" xml:space="preserve">
<style type="text/css">
	.st0{fill:#829EBA;}
	.st1{fill:#6D90AD;}
	.st2{fill:#366994;}
	.st3{fill:#494848;}
	.st4{fill:#BFAA33;}
	.st5{fill:#2B7BB7;}
	.st6{fill:#D4B759;}
	.st7{fill:#DBB745;}
	.st8{fill:#DDE8EE;}
	.st9{fill:#4C4C4C;}
</style>
<path class="st0" d="M43.6,40.1l-11.4,4.2c-1.8,0.7-3.9-0.3-4.7-2.2l-6.9-16.2c-0.9-2.1-0.1-4.5,1.8-5.4l11.7-5.7
	c2.1-1,4.5,0,5.4,2.3L46,35C46.7,37,45.6,39.3,43.6,40.1z"/>
<g>
	<path class="st1" d="M75.7,22.6l0.4,1.5c0-1.5-0.8-2.9-2.1-3.6l-3.5-1.7c-0.1,1.5-0.4,3.4-0.8,5.4L75.7,22.6z"/>
	<path class="st0" d="M67.1,24.8l0,0.2l2.6-0.7c0.4-2.1,0.6-3.9,0.8-5.4l-8.2-4c-0.6-0.3-1.2-0.4-1.8-0.4
		C64.1,16.3,66.8,20.2,67.1,24.8z"/>
	<path class="st1" d="M89.5,71.9L76.1,24.1c0,0.6-0.1,1.2-0.3,1.8l-6.9,16.2c-0.2,0.4-0.4,0.8-0.7,1.1l0.2,3.2l8.2,29.1L89.5,71.9z"
		/>
	<path class="st1" d="M69.7,24.3c-0.5,2.4-1.2,5.1-2.2,8l0.6,10.9c0.3-0.3,0.5-0.7,0.7-1.1l6.9-16.2c0.3-0.6,0.3-1.2,0.3-1.8
		l-0.4-1.5L69.7,24.3z"/>
	<path class="st0" d="M69.7,24.3L67.1,25l0.4,7.3C68.6,29.4,69.3,26.7,69.7,24.3z"/>
	<path class="st1" d="M64.1,44.3l-2.3-0.9C55.6,52.3,45,60.7,27,63.8l-0.1,2.4c-0.4,8.2,5,15.2,11.9,15.2h18.9
		c7,0,12.4-7.1,11.9-15.4l-1.2-19.7l-0.7-2.7C66.6,44.4,65.3,44.7,64.1,44.3z"/>
	<path class="st0" d="M60.5,14.5c-0.4-0.2-0.9-0.4-1.3-0.6c-0.2,0.4-0.4,0.8-0.6,1.1C59.1,14.7,59.8,14.5,60.5,14.5z"/>
	<path class="st0" d="M61.8,43.4l-9.1-3.3c-2-0.7-3.1-3-2.4-5.1l6.5-17.8c-2.4,2.4-5.8,3.9-9.6,3.9c-5.1,0-9.4-2.6-11.5-6.5
		c-4,1.8-6.9,6-7.1,10.9L27,63.8C45,60.7,55.6,52.3,61.8,43.4z"/>
	<path class="st0" d="M56.9,17.2L50.3,35c-0.7,2,0.3,4.3,2.4,5.1l9.1,3.3c1.5-2.2,2.8-4.4,3.9-6.7l-3-10.5l4.4-1.2l0-0.2
		c-0.3-4.6-3-8.5-6.6-10.3c-0.7,0-1.4,0.2-1.9,0.6C58.1,15.8,57.5,16.5,56.9,17.2z"/>
	<path class="st1" d="M61.8,43.4l2.3,0.9c1.2,0.4,2.5,0.2,3.5-0.6l-2-6.9C64.6,39,63.4,41.2,61.8,43.4z"/>
	<path class="st1" d="M67.6,43.7l0.7,2.7l-0.2-3.2C68,43.4,67.8,43.5,67.6,43.7z"/>
	<path class="st1" d="M65.7,36.7l2,6.9c0.2-0.2,0.4-0.3,0.6-0.5l-0.6-10.9C67,33.7,66.4,35.2,65.7,36.7z"/>
	<path class="st0" d="M67.1,25l-4.4,1.2l3,10.5c0.7-1.5,1.3-3,1.9-4.5L67.1,25z"/>
	<path class="st2" d="M47.3,21c3.8,0,7.2-1.5,9.6-3.9l0-0.1c0.3-0.9,0.9-1.6,1.7-2.1c0.2-0.4,0.4-0.8,0.6-1.1c-0.1,0-0.2,0-0.3-0.1
		c-3,1.6-7.3,2.6-12.2,2.6c-4.1,0-7.9-0.7-10.8-1.9c-0.1,0-0.2,0.1-0.2,0.1C37.9,18.4,42.2,21,47.3,21z"/>
	<path class="st2" d="M56.9,17.1L56.9,17.1c0.6-0.6,1.2-1.3,1.7-2.1C57.8,15.5,57.2,16.2,56.9,17.1z"/>
</g>
<g>
	<path class="st1" d="M9.5,62.2l-2.7,9.6l13,3.6L23,64.1C17,64.5,12.6,63.6,9.5,62.2z"/>
	<path class="st0" d="M20.6,22.6L9.5,62.2c3.2,1.3,7.5,2.3,13.5,1.9l10.6-37.9L20.6,22.6z"/>
</g>
<path class="st3" d="M87.3,87.1H30.6c-2.4,0-4.4-2-4.4-4.4v-2c0-4.3,3.5-7.9,7.9-7.9h50.3c4,0,7.3,3.3,7.3,7.3v2.6
	C91.6,85.2,89.7,87.1,87.3,87.1z"/>
<rect x="33.9" y="35.1" class="st4" width="9.9" height="4.6"/>
<g>
	<path class="st5" d="M56.7,74.4L56.7,74.4C56.6,74.5,56.9,74.5,56.7,74.4z"/>
	<path class="st3" d="M87.7,62.4c0,0-0.4,4.9,3.1,4.9c0.5,0,1.1,0,1.6,0c-0.4-7.7-1.9-14.9-6.8-11.1c-2.1,1.6-4.1,2.5-6.1,3
		C80,60.7,81.8,62.5,87.7,62.4z"/>
	<path class="st6" d="M90.8,67.3c-3.4,0-3.1-4.9-3.1-4.9c-5.9,0.1-7.8-1.7-8.3-3.3c-2.5,0.5-4.8,0.3-6.7-0.2L56.7,74.4
		c0.2,0-0.1,0.1-0.1,0.1l-0.2,7.3h35.7c0,0,0.7-7.4,0.3-14.5C91.9,67.3,91.3,67.3,90.8,67.3z"/>
	<path class="st7" d="M56.7,74.4c-0.3,0-1.9-0.1-7.3,0c-5.5,0.1-8.3-2.6-9.7-4.7c-13.9,1.6-13.9,12-13.9,12h30.5L56.7,74.4
		L56.7,74.4z"/>
	<path class="st8" d="M49.4,74.5c5.4-0.1,6.9-0.1,7.3,0L72.8,59c-3.6-0.9-6.1-2.8-6.1-2.8s-7,12.9-23.9,13.3c-1.1,0-2.1,0.1-3,0.2
		C41.1,71.9,43.9,74.6,49.4,74.5z"/>
</g>
<path class="st9" d="M51.6,71.7l-0.2,0c-0.4,0-0.7-0.3-0.8-0.7l-0.1-3c0-0.4,0.3-0.7,0.7-0.8l0.2,0c0.4,0,0.7,0.3,0.8,0.7l0.1,3
	C52.4,71.4,52,71.7,51.6,71.7z"/>
<path class="st9" d="M57.8,69.3l-0.2,0.1c-0.4,0.2-0.8,0-1-0.4l-1.2-2.7c-0.2-0.4,0-0.8,0.4-1l0.2-0.1c0.4-0.2,0.8,0,1,0.4l1.2,2.7
	C58.3,68.7,58.2,69.1,57.8,69.3z"/>
<path class="st9" d="M63.3,65.7l-0.2,0.2c-0.3,0.3-0.8,0.2-1-0.1l-1.9-2.2c-0.3-0.3-0.2-0.8,0.1-1l0.2-0.2c0.3-0.3,0.8-0.2,1,0.1
	l1.9,2.2C63.6,65,63.6,65.4,63.3,65.7z"/>
<polygon class="st8" points="74.2,81.7 69.7,81.8 71.7,71.7 76.2,71.5 "/>
<polygon class="st8" points="82.2,81.7 77.6,81.8 79.7,71.7 84.2,71.5 "/>
</svg>
