<?xml version="1.0" encoding="utf-8"?>
<!-- Generator: Adobe Illustrator 23.0.0, SVG Export Plug-In . SVG Version: 6.00 Build 0)  -->
<svg version="1.1" id="Layer_1" xmlns="http://www.w3.org/2000/svg" xmlns:xlink="http://www.w3.org/1999/xlink" x="0px" y="0px"
	 viewBox="0 0 100 100" style="enable-background:new 0 0 100 100;" xml:space="preserve">
<style type="text/css">
	.st0{fill:#656666;}
	.st1{fill:#CDD4DA;}
	.st2{fill:#768C97;}
	.st3{fill:#FFFFFF;}
	.st4{fill:#434444;}
	.st5{fill:#F1BB6B;}
</style>
<path class="st0" d="M38.1,28.2h-14c-1.9,0-3.5-1.6-3.5-3.5v-4.9c0-1.9,1.6-3.5,3.5-3.5h14c1.9,0,3.5,1.6,3.5,3.5v4.9
	C41.6,26.6,40,28.2,38.1,28.2z"/>
<path class="st1" d="M80.2,80.7H19.9c-6.6,0-12-5.4-12-12V33.8c0-6.6,5.4-12,12-12h60.3c6.6,0,12,5.4,12,12v34.9
	C92.2,75.3,86.8,80.7,80.2,80.7z"/>
<rect x="7.8" y="35.2" class="st2" width="84.3" height="32.1"/>
<circle class="st3" cx="63.8" cy="51.2" r="21.4"/>
<circle class="st0" cx="63.8" cy="51.2" r="17.1"/>
<circle class="st4" cx="63.8" cy="51.2" r="10.3"/>
<circle class="st3" cx="55" cy="46.2" r="3.1"/>
<path class="st3" d="M31.4,42.2H16.8c-1.7,0-3.1-1.4-3.1-3.1v-7.9c0-1.7,1.4-3.1,3.1-3.1h14.6c1.7,0,3.1,1.4,3.1,3.1v7.9
	C34.5,40.8,33.1,42.2,31.4,42.2z"/>
<path class="st5" d="M28.3,38.7h-8.4c-1.5,0-2.8-1.3-2.8-2.8v-1.4c0-1.5,1.3-2.8,2.8-2.8h8.4c1.5,0,2.8,1.3,2.8,2.8v1.4
	C31.1,37.4,29.8,38.7,28.3,38.7z"/>
</svg>
