<?xml version="1.0" encoding="utf-8"?>
<!-- Generator: Adobe Illustrator 23.0.0, SVG Export Plug-In . SVG Version: 6.00 Build 0)  -->
<svg version="1.1" id="Layer_1" xmlns="http://www.w3.org/2000/svg" xmlns:xlink="http://www.w3.org/1999/xlink" x="0px" y="0px"
	 viewBox="0 0 300 300" style="enable-background:new 0 0 300 300;" xml:space="preserve">
<style type="text/css">
	.st0{fill:#E9E8E8;stroke:#FFFFFF;stroke-miterlimit:10;}
	.st1{fill:#48B0DD;}
	.st2{fill:#F5A637;}
	.st3{opacity:0.28;fill:#241916;}
	.st4{fill:#5B5C5E;}
	.st5{fill:#E5E5E5;stroke:#FFFFFF;stroke-miterlimit:10;}
	.st6{fill:#FFFFFF;stroke:#FFFFFF;stroke-miterlimit:10;}
	.st7{fill:#D71819;}
	.st8{fill:#1F95D4;}
	.st9{font-family:'BMJUA';}
	.st10{font-size:23.0761px;}
	.st11{fill:#47A739;}
	.st12{fill:#F6EF72;}
	.st13{opacity:0.14;fill:#241916;}
	.st14{fill:#F3ECA9;}
	.st15{fill:#E07C1E;}
	.st16{fill:#3DAED2;}
</style>
<polygon class="st0" points="98.1,107.3 42.6,107.3 27.8,154.5 27.8,212.3 262.9,212.3 262.9,205.6 262.9,75.1 98.1,75.1 "/>
<polygon class="st1" points="46.7,115.6 86.8,115.6 86.8,154.5 34.5,154.5 "/>
<rect x="98.1" y="75.1" class="st2" width="164.8" height="87.9"/>
<ellipse class="st3" cx="149.5" cy="235.5" rx="110.9" ry="12.3"/>
<ellipse class="st4" cx="73.6" cy="212.3" rx="20.6" ry="21.1"/>
<ellipse class="st5" cx="73.6" cy="212.3" rx="11.7" ry="12.1"/>
<ellipse class="st4" cx="213.5" cy="212.3" rx="20.6" ry="21.1"/>
<ellipse class="st6" cx="213.5" cy="212.3" rx="11.7" ry="12.1"/>
<path class="st7" d="M135.7,125c0,0,0.9-1.2-0.2-1.3c-1.3-0.1-1.6-1.3-1.6-1.4c0-0.2,0.2-1.3,1.6-1.4c1.1-0.1,0.2-1.3,0.2-1.3
	s-1.6-2-3.9-0.7c-2.1,1.2-2.9,3.1-3.1,3.5l0,0c0,0,0,0,0,0c0,0,0,0,0,0l0,0c0.1,0.3,1,2.3,3.1,3.5C134,127,135.7,125,135.7,125z"/>
<path class="st8" d="M144.8,130.5c5,0-6.3,0-5.7-8.6c-0.1-8.4,10.7-8,5.7-8c-0.3,0-0.6,0-0.8,0l0,0c0,0-6.7,0.8-8.3,3
	c-0.2,0.3-0.2,0.6,0,0.9c0.1,0.2,0.2,0.4,0.5,0.6c0.4,0.5,0.9,1.3,1.4,2.2c0.2,0.4,0.3,0.9,0.3,1.4c0,1.3-0.2,1.3-0.7,2.3
	c-0.3,0.6-0.7,1.1-1,1.4c-0.2,0.3-0.4,0.5-0.5,0.6c-0.2,0.3-0.1,0.6,0,0.9c1.5,2.2,8.3,3,8.3,3l0,0
	C144.2,130.4,144.5,130.5,144.8,130.5z"/>
<line class="st8" x1="139.7" y1="117.7" x2="139.7" y2="126.9"/>
<text transform="matrix(1.0444 0 0 1 137.1641 128.2534)" class="st8 st9 st10">C</text>
<g>
	<path class="st8" d="M151.7,125.3c0.2,0.7,0.4,1.3,0.7,1.9c0.3,0.6,0.7,1.2,1.2,1.6c0.4,0.4,0.8,0.7,1.3,1c0.5,0.3,1,0.5,1.5,0.6
		c0.5,0.1,1,0.2,1.6,0.2c0.5,0,1-0.1,1.5-0.2c0.7-0.2,1.4-0.5,2-0.9c0.6-0.4,1.1-1,1.5-1.6c0.2-0.3,0.3-0.6,0.4-0.9
		c0.1-0.3,0.2-0.6,0.3-1c0.2-0.5,0.3-1.1,0.3-1.7c0.1-0.6,0.1-1.3,0.1-1.9c0-0.6-0.1-1.8-0.2-2.4c-0.1-0.7-0.3-1.3-0.5-1.9
		c-0.3-0.8-0.7-1.5-1.2-2.2c-0.5-0.6-1.1-1.3-1.7-1.7c-0.7-0.4-1.4-0.6-2.3-0.6c-0.9,0-1.8,0.1-2.9,0.5c-0.7,0.3-1.2,0.8-1.7,1.3
		c-0.5,0.5-0.9,1-1.3,1.7c-0.3,0.6-0.6,1.7-0.8,2.4c-0.2,0.7-0.3,1.3-0.3,1.9c0,0.6,0,1.3,0,2C151.4,123.9,151.5,124.6,151.7,125.3z
		 M154.4,121.5c0-0.4,0.1-1.2,0.2-1.6c0.1-0.4,0.2-0.8,0.4-1.2c0.1-0.4,0.3-0.7,0.6-1c0.2-0.3,0.5-0.5,0.9-0.7
		c0.6-0.3,1.1-0.4,1.6-0.4c0.5,0,0.9,0.1,1.2,0.3c0.4,0.2,0.7,0.5,0.9,0.9c0.3,0.4,0.5,0.8,0.6,1.3c0.3,0.8,0.4,2.2,0.4,3.1
		c0,0.9,0,1.9-0.2,2.6c-0.1,0.4-0.2,0.8-0.4,1.2c-0.5,1-1.1,1.5-2,1.7c-0.5,0.1-1.1,0.1-1.6-0.1c-0.5-0.2-1-0.5-1.4-1
		c-0.3-0.3-0.5-0.7-0.6-1.1c-0.2-0.4-0.3-0.8-0.4-1.3c-0.1-0.4-0.1-1-0.2-1.5C154.3,122.3,154.4,121.9,154.4,121.5z"/>
	<path class="st8" d="M165.2,122.2c0,0.6,0,1.2,0.1,1.8c0,0.6,0.1,1.2,0.3,1.7c0.2,0.6,0.4,1.1,0.6,1.6c0.3,0.5,0.6,1,1.1,1.4
		c0.6,0.6,1.3,1,2,1.3c0.7,0.3,1.5,0.4,2.3,0.4c0.5,0,0.9-0.1,1.4-0.2c0.5-0.1,0.9-0.3,1.3-0.5c0.4-0.2,0.8-0.5,1.2-0.8
		c0.3-0.3,0.6-0.7,0.9-1.1c0.2-0.3,0.3-0.6,0.5-0.9c0.1-0.3,0.3-0.7,0.4-1c0.2-0.5,0.3-1.2,0.4-2.1c0.1-0.9,0.2-1.8,0.2-2.8
		c0-0.5,0-0.9,0-1.4l0,0c0,0,0-0.2,0-0.4c0-0.2,0-0.5,0-0.7c0-1.2,0-2.9,0-3.8c0-0.3-0.3-0.6-0.6-0.6h-2.1c-0.4,0-0.7,0.3-0.7,0.8
		v0.5c0,0,0,0.1,0,0.1c0,0,0,0.1,0,0.1c0,0,0,0.1,0,0.1c0,0.6,0,1.2,0,2v0.1l0,0c0,0,0,0,0,0c0,0.8,0,1.6,0,2.4
		c0,0.8-0.1,1.6-0.1,2.4c0,0.8-0.1,1.4-0.2,2c0,0,0,0,0,0.1c0,0.2-0.1,0.4-0.1,0.6c-0.1,0.2-0.1,0.4-0.2,0.6c-0.2,0.5-0.5,0.8-0.9,1
		c-0.4,0.2-0.8,0.4-1.2,0.4c-0.4,0-0.8,0-1.2-0.1c-0.4-0.1-0.8-0.4-1.1-0.8c-0.3-0.5-0.5-1.1-0.6-1.8c-0.1-0.7-0.1-1.6-0.1-2.5
		c0-0.2,0-0.6,0-1.1c0-0.5,0-1.1,0-1.7c0-0.4,0-0.9,0-1.3l0,0l0-2.9c0-0.4-0.3-0.8-0.7-0.8h-1.9c-0.4,0-0.7,0.3-0.7,0.8v1.4v0.6
		c0,0,0,0,0,0l0,0.8l0,0c0,0.2,0,0.5,0,0.8c0,0.4,0,0.9,0,1.4c0,0.5,0,0.9,0,1.3C165.2,121.5,165.2,121.9,165.2,122.2z"/>
	<path class="st8" d="M226.6,130.4c0.3-0.1,0.7-0.2,1-0.3c0.3-0.1,0.6-0.2,0.8-0.4c0.5-0.3,0.8-0.6,1.1-1c0.3-0.4,0.5-0.8,0.6-1.2
		c0.1-0.4,0.2-0.9,0.3-1.3c0-0.5,0.1-0.9,0.1-1.4v-0.9c0-0.1,0-0.2,0-0.3c0-0.1,0-0.2,0-0.3c0-0.2-0.1-0.3-0.1-0.5
		c0-0.1-0.1-0.1-0.1-0.2c0-0.1-0.1-0.1-0.1-0.2c-0.1-0.1-0.3-0.2-0.5-0.2c-0.2-0.1-0.4-0.1-0.6-0.1h-1.4l0,0h-2.1
		c-0.3,0-0.5,0.2-0.5,0.5v1.7c0,0.2,0.2,0.4,0.4,0.4h1.6c0.1,0,0.1,0,0.2,0c0.2,0,0.3,0,0.5,0v0c0,0.3,0,0.6-0.1,0.9
		c-0.1,0.3-0.2,0.6-0.3,0.8c-0.2,0.2-0.4,0.5-0.6,0.6c-0.3,0.2-0.6,0.3-1,0.4c-0.3,0.1-0.6,0.1-0.9,0.1c-0.3,0-0.6-0.1-0.9-0.2
		c-0.3-0.1-0.6-0.3-0.8-0.5c-0.2-0.2-0.4-0.4-0.6-0.7c-0.3-0.7-0.6-1.4-0.8-2.1c-0.1-0.4-0.1-0.9-0.2-1.4c0-0.5,0-1,0.1-1.4
		c0.1-0.5,0.2-0.9,0.3-1.4c0.1-0.4,0.3-0.9,0.6-1.2c0.2-0.3,0.5-0.6,0.8-0.9c0.3-0.3,0.7-0.4,1-0.6c0.4-0.1,0.8-0.2,1.2-0.1
		c0.4,0,0.8,0.2,1.2,0.4c0.3,0.2,0.6,0.4,0.7,0.7c0.1,0.1,0.1,0.2,0.2,0.3c0.1,0.2,0.6,1.6,0.6,1.7l0,0c0,0.1,0.1,0.2,0.2,0.2l1-0.2
		c0.1,0,0.2,0,0.2,0l0.6-0.1c0.4-0.1,0.7-0.4,0.6-0.8c-0.1-0.5-0.2-1.3-0.5-2.2c-0.1-0.3-0.2-0.6-0.3-0.8c0,0,0,0,0,0l0,0
		c0-0.1-0.1-0.1-0.1-0.2c-0.3-0.5-0.8-1-1.4-1.3c-0.6-0.3-1.2-0.5-1.9-0.7c-0.7-0.1-1.4-0.1-2.1-0.1c-0.7,0.1-1.4,0.2-1.9,0.5
		c-0.6,0.3-1.2,0.6-1.7,1.1c-0.5,0.5-0.9,1.1-1.2,1.7c-0.3,0.6-0.5,1.3-0.7,1.9c-0.2,0.7-0.3,1.3-0.3,1.9c-0.1,1,0,2,0.1,3.1
		c0.1,1.1,0.4,2.1,0.9,3c0.4,0.9,1.1,1.7,1.9,2.3c0.8,0.6,1.9,0.9,3.3,1c0.3,0,0.6,0,0.9,0C225.9,130.5,226.2,130.5,226.6,130.4z"/>
	<path class="st8" d="M182,128.5v-4.7c0.1,0,0.2,0,0.3,0c0.1,0,0.2,0,0.3,0c0.3,0,0.5,0,0.8,0c0.2,0,0.5,0,0.8-0.1
		c0.7-0.1,1.4-0.1,2-0.3c0.6-0.1,1.2-0.3,1.8-0.5c0.8-0.3,1.4-0.7,1.7-1.3c0.4-0.6,0.6-1.2,0.7-1.9c0.1-0.7,0-1.5-0.3-2.2
		c-0.3-0.7-0.7-1.4-1.3-1.9c-0.2-0.2-0.4-0.3-0.7-0.5c-0.2-0.1-0.5-0.3-0.8-0.3c-0.1-0.1-0.3-0.1-0.4-0.2c-0.1,0-0.3-0.1-0.4-0.1
		c-0.1,0-0.3-0.1-0.4-0.1c-0.1,0-0.3,0-0.4-0.1c-0.2,0-0.4-0.1-0.5-0.1c-0.2,0-0.4,0-0.5,0c-0.2,0-0.3,0-0.5,0c-0.2,0-0.4,0-0.6-0.1
		c-0.1,0-0.2,0-0.3,0l0,0l-3.6,0c-0.3,0-0.6,0.3-0.6,0.7v1.2v1.5v10.3v0.8v1.1c0,0.3,0.3,0.6,0.6,0.6h1.8c0.3,0,0.6-0.2,0.6-0.6
		C181.9,129.4,182,129,182,128.5z M183.5,116.9c0.2,0,0.4,0,0.5,0c0.2,0,0.3,0,0.4,0c0.4,0,0.7,0.1,1.1,0.2c0.4,0.1,0.7,0.3,1,0.4
		c0.3,0.2,0.5,0.4,0.7,0.7c0.2,0.3,0.2,0.6,0.2,1c0,0.4-0.2,0.8-0.5,1c-0.3,0.3-0.6,0.5-1,0.6c-0.4,0.1-0.8,0.2-1.3,0.3
		c-0.4,0-0.8,0.1-1.2,0.1l-1.4,0c0-0.3,0-0.5,0-0.8s0-0.5,0-0.8c0-0.5,0-1,0-1.4c0-0.4,0-0.9,0-1.4c0.1,0,0.3,0,0.4,0
		c0.1,0,0.2,0,0.3,0c0.1,0,0.2,0,0.4,0C183.1,116.9,183.3,116.9,183.5,116.9z"/>
	<path class="st8" d="M203.7,129.6l-0.7-1.4L203,128l-4.7-11.7l-0.1-0.4c0-0.1-0.1-0.2-0.1-0.3c0-0.1-0.1-0.2-0.1-0.3
		c-0.1-0.2-0.2-0.4-0.3-0.5c-0.1-0.2-0.2-0.3-0.3-0.5c-0.1-0.1-0.2-0.2-0.4-0.3c-0.2-0.1-0.5-0.1-0.7-0.1c-0.3,0-0.5,0-0.7,0.1
		c-0.2,0.1-0.3,0.2-0.4,0.3c-0.1,0.1-0.1,0.2-0.2,0.2c-0.1,0.1-0.1,0.2-0.2,0.3c-0.1,0.2-0.2,0.3-0.3,0.5c0,0.1-0.1,0.2-0.1,0.3
		c0,0.1-0.1,0.2-0.1,0.3l-0.1,0.4l-4.5,11.1l-1,2.1l0,0l0,0c-0.1,0.3,0.1,0.6,0.3,0.6l2.5,0c0.2,0,0.3-0.1,0.4-0.2l0.6-1.2
		c0-0.1,0-0.1,0.1-0.2c0,0,0,0,0-0.1l0,0l0.6-1.4c1,0,2.1,0,3.1,0c1,0,2.1,0,3.1,0l0.6,1.5c0,0.1,0,0.1,0.1,0.2c0,0,0,0,0,0l0.6,1.2
		c0.1,0.2,0.2,0.2,0.4,0.2l2.4,0C203.7,130.2,203.9,129.9,203.7,129.6z M194.2,124.1l0.4-1c0.2-0.4,0.4-0.9,0.6-1.4
		c0.2-0.5,0.4-1,0.6-1.4c0.1-0.1,0.1-0.3,0.2-0.4c0.1-0.1,0.1-0.3,0.2-0.4c0.1,0.1,0.1,0.3,0.2,0.4c0.1,0.1,0.1,0.3,0.2,0.4
		c0.2,0.5,0.4,1,0.6,1.4c0.2,0.5,0.4,0.9,0.6,1.4l0.4,1H194.2z"/>
	<path class="st8" d="M207.9,128.1l0.1-7c0-0.4,0.5-0.5,0.7-0.2c0.1,0.1,0.1,0.2,0.2,0.4c0.3,0.5,0.6,1,0.8,1.4l1.9,2.9
		c0.4,0.7,0.9,1.4,1.3,2c0.4,0.7,0.9,1.3,1.4,2c0.1,0.2,0.3,0.3,0.5,0.4c0.2,0.1,0.4,0.2,0.6,0.3c0.2,0.1,0.4,0.1,0.7,0
		c0.2,0,0.4-0.1,0.6-0.3c0.2-0.2,0.4-0.4,0.4-0.7c0.1-0.3,0.1-0.6,0.1-0.8c0-0.2,0-0.4,0-0.5l0,0v-13.5c0-0.3-0.2-0.5-0.5-0.5h-2.1
		c-0.3,0-0.5,0.2-0.5,0.5v2.2l0,0c0,0.3,0,0.5,0,0.8c0,0.7,0,1.4,0,2.1c0,0.5,0,1.1,0,1.6c0,0.5,0,1,0,1.5v0.2
		c0,0.4-0.5,0.5-0.7,0.2l-4.6-7.2l-0.3-0.4c-0.1-0.1-0.1-0.2-0.2-0.2c0-0.1-0.1-0.2-0.1-0.3c-0.1-0.1-0.1-0.2-0.2-0.2
		c-0.1-0.1-0.1-0.2-0.2-0.2c-0.1-0.1-0.1-0.1-0.2-0.2c-0.1-0.1-0.1-0.1-0.2-0.2c0,0,0,0-0.1,0c-0.1,0-0.1-0.1-0.2-0.1
		c-0.1,0-0.1-0.1-0.2-0.1c0,0,0,0-0.1,0c-0.2,0-0.4,0-0.7,0c-0.3,0-0.5,0.1-0.6,0.2c-0.3,0.2-0.4,0.3-0.5,0.5
		c-0.1,0.2-0.2,0.5-0.3,0.9c0,0.6-0.1,1.3-0.1,2.1s0,1.4,0,2.1c0,0.5,0,1.1,0,1.6c0,0.5,0,1,0,1.5l0,3.3l0,1.8v0.2v0.2
		c0,0.2,0,0.4,0,0.6v1c0,0.3,0.2,0.5,0.4,0.5l1,0c0,0,0,0,0,0l1.1,0c0.2,0,0.4-0.2,0.4-0.5V128.1z"/>
</g>
<path class="st8" d="M147.6,117.8"/>
<path class="st11" d="M166,113.9"/>
<rect x="27.7" y="189.4" class="st12" width="4.3" height="10.9"/>
<rect x="120.7" y="75.1" class="st13" width="142.3" height="137.2"/>
<path class="st13" d="M234.1,212.4c0,11.7-9.2,20.9-20.6,20.9c-11.4,0-20.6-9.2-20.6-20.9"/>
<path class="st14" d="M223.3,89.9c-1.6-3.9-2.5-8.1-2.5-12.6c0-17.9,14.1-32.4,31.6-32.4s31.6,14.5,31.6,32.4
	c0,4.5-0.9,8.7-2.5,12.6"/>
<ellipse class="st15" cx="252.3" cy="84.3" rx="16.4" ry="16.8"/>
<path class="st16" d="M281.4,90c-4.8,11.6-16,19.8-29.1,19.8c-13.1,0-24.3-8.2-29.1-19.8"/>
</svg>
