<?xml version="1.0" encoding="utf-8"?>
<!-- Generator: Adobe Illustrator 23.0.0, SVG Export Plug-In . SVG Version: 6.00 Build 0)  -->
<svg version="1.1" id="Layer_1" xmlns="http://www.w3.org/2000/svg" xmlns:xlink="http://www.w3.org/1999/xlink" x="0px" y="0px"
	 viewBox="0 0 249.1 185.6" style="enable-background:new 0 0 249.1 185.6;" xml:space="preserve">
<style type="text/css">
	.st0{fill:#E10000;}
	.st1{font-family:'SEBANGGothicBold';}
	.st2{font-size:51.0137px;}
</style>
<text transform="matrix(1 0 0 1 47.8623 121.4207)" class="st0 st1 st2">무료반품</text>
<path class="st0" d="M43.8,99.2c0,0-16.6-0.8-13.7-17.4C32.9,66.1,49,72.5,49,72.5l2.4-9.7c0,0-22.9-8.5-30,15.3
	c-5.8,19.3,9.8,28.8,22,30L43.8,99.2z"/>
<path class="st0" d="M51.5,62.7"/>
<path class="st0" d="M51.1,68.6"/>
<path class="st0" d="M49,72.5c0,0,4.5,1.4,6,2.9l-2,3.2l14-1.3l-6.2-14.6l-1.4,3.4c0,0-5.9-2.8-7.9-3.4"/>
</svg>
