<?xml version="1.0" encoding="utf-8"?>
<!-- Generator: Adobe Illustrator 23.0.0, SVG Export Plug-In . SVG Version: 6.00 Build 0)  -->
<svg version="1.1" id="Layer_1" xmlns="http://www.w3.org/2000/svg" xmlns:xlink="http://www.w3.org/1999/xlink" x="0px" y="0px"
	 viewBox="0 0 249.1 185.6" style="enable-background:new 0 0 249.1 185.6;" xml:space="preserve">
<style type="text/css">
	.st0{fill:#848687;}
	.st1{fill:#2D2D2D;}
	.st2{fill:#2594EF;}
	.st3{fill:#017BF7;}
	.st4{fill:#96CDEA;}
	.st5{fill:#FFFFFF;}
</style>
<g>
	<circle class="st0" cx="71.2" cy="54.6" r="43"/>
	<circle class="st1" cx="69.9" cy="28.5" r="13.3"/>
	<circle class="st1" cx="45.1" cy="55.8" r="13.3"/>
	<circle class="st1" cx="72.3" cy="80.7" r="13.3"/>
	<circle class="st1" cx="97.2" cy="53.4" r="13.3"/>
</g>
<g>
	<path class="st2" d="M53.4,147.7c0,4.9,4,8.9,8.9,8.9h65.9L53.4,81.8V147.7z"/>
	<path class="st3" d="M200.8,50.4H84.3L53.4,81.2v0.6l74.9,74.9h72.4c4.9,0,8.9-4,8.9-8.9V59.3C209.7,54.4,205.7,50.4,200.8,50.4z"
		/>
</g>
<path class="st4" d="M84.3,72.3c0,4.9-4,8.9-8.9,8.9H53.4l30.9-30.9V72.3z"/>
<path class="st5" d="M159.9,104.9l-11.2-6.5c0.7-0.8,12.3-14.9-13.8-8l-20-11.5v17.6c3.8-1.7,8.1-3.1,8.1-3.1
	c-3,2.2-8.1,7.1-8.1,7.1c-20.2,22.9,0,17.4,0,17.4v13L159.9,104.9z M147.6,97l-10.1-5.4C137.6,91.6,154.1,86.7,147.6,97z M115,104
	v11.8C102.3,118.6,115,104,115,104z"/>
<rect x="62.5" y="84.2" class="st5" width="9.1" height="12.5"/>
<rect x="62.5" y="108.7" class="st5" width="9.1" height="12.5"/>
<rect x="62.5" y="132.3" class="st5" width="9.1" height="25.1"/>
<rect x="190.1" y="84.2" class="st5" width="9.1" height="12.5"/>
<rect x="190.1" y="108.7" class="st5" width="9.1" height="12.5"/>
<rect x="190.1" y="132.3" class="st5" width="9.1" height="25.1"/>
<rect x="190.1" y="47.1" class="st5" width="9.1" height="25.1"/>
</svg>
