<?xml version="1.0" encoding="utf-8"?>
<!-- Generator: Adobe Illustrator 23.1.0, SVG Export Plug-In . SVG Version: 6.00 Build 0)  -->
<svg version="1.1" id="Layer_1" xmlns="http://www.w3.org/2000/svg" xmlns:xlink="http://www.w3.org/1999/xlink" x="0px" y="0px"
	 viewBox="0 0 91 91" style="enable-background:new 0 0 91 91;" xml:space="preserve">
<style type="text/css">
	.st0{fill:#EBEBEB;}
	.st1{fill:#FFFFFF;stroke:#000000;stroke-width:2;stroke-miterlimit:10;}
</style>
<rect class="st0" width="91" height="91"/>
<g>
	<path class="st1" d="M46.26,33.05c0,0,0.21-9.91-10.96-11.77v13.79L46.26,33.05z"/>
	<path class="st1" d="M43.99,36.79c0,0-3.72-11.37,11.58-15.51v10.75L43.99,36.79z"/>
	<path class="st1" d="M58.22,28.42c0,0-8.53-1.66-14.69,5.53s0.62,18.14,0.62,18.14s8.76,2.03,10.84-3.22
		C57.07,43.62,58.22,28.42,58.22,28.42z"/>
	<line class="st1" x1="46.84" y1="49.75" x2="46.84" y2="76.29"/>
	<path class="st1" d="M32.41,28.18c0,0,11.01-1.57,14.23,5.3s2.27,19,2.27,19s-13.57,1.56-15.02-7.2
		C32.45,36.52,32.41,28.18,32.41,28.18z"/>
	<path class="st1" d="M46.26,59.94c0,0-3.1-7.15-13.85-5.33C32.41,54.62,37.79,63.45,46.26,59.94z"/>
	<path class="st1" d="M46.84,63.88c0,0,6.87-4.34,15.34,0c0,0-2.94,5.59-7.67,5.49s-7.67-1.76-7.67-1.76V63.88z"/>
</g>
</svg>
