<?xml version="1.0" encoding="utf-8"?>
<!-- Generator: Adobe Illustrator 23.1.0, SVG Export Plug-In . SVG Version: 6.00 Build 0)  -->
<svg version="1.1" id="Layer_1" xmlns="http://www.w3.org/2000/svg" xmlns:xlink="http://www.w3.org/1999/xlink" x="0px" y="0px"
	 viewBox="0 0 90 90" style="enable-background:new 0 0 90 90;" xml:space="preserve">
<style type="text/css">
	.st0{fill:#FFFFFF;stroke:#000000;stroke-width:2;stroke-miterlimit:10;}
	.st1{fill:#CCE084;stroke:#000000;stroke-width:2;stroke-miterlimit:10;}
	.st2{fill:#E5DF4E;stroke:#000000;stroke-width:2;stroke-miterlimit:10;}
	.st3{fill:#66C5DC;stroke:#000000;stroke-width:2;stroke-miterlimit:10;}
</style>
<path class="st0" d="M32.5,63.67h-1.18c-5.2,0-9.45-4.25-9.45-9.45V22.25h20.07v31.97C41.94,59.42,37.69,63.67,32.5,63.67z"/>
<path class="st1" d="M32.5,63.67h-1.18c-5.2,0-9.45-4.25-9.45-9.45V43.59h20.07v10.63C41.94,59.42,37.69,63.67,32.5,63.67z"/>
<line class="st0" x1="21.87" y1="43.73" x2="41.94" y2="43.73"/>
<line class="st0" x1="31.91" y1="63.67" x2="31.91" y2="77.86"/>
<path class="st2" d="M53.54,17.75c0,0,0.02-8.52,8.39-7.43s6.47,9.14,6.47,9.14s-1.01,7.53-9.32,5.3S53.54,17.75,53.54,17.75z"/>
<line class="st0" x1="23.77" y1="77.86" x2="39.77" y2="77.86"/>
<path class="st0" d="M59.04,59.44l-1.16,0.2c-5.12,0.87-10.03-2.61-10.89-7.73l-5.35-31.52l19.79-3.36l5.35,31.52
	C67.64,53.67,64.16,58.57,59.04,59.44z"/>
<path class="st3" d="M59.04,59.44l-1.16,0.2c-5.12,0.87-10.03-2.61-10.89-7.73l-2.32-13.66l20.92,3.31l1.19,7
	C67.64,53.67,64.16,58.57,59.04,59.44z"/>
<line class="st0" x1="44.66" y1="38.21" x2="65.59" y2="41.55"/>
<line class="st0" x1="58.46" y1="59.54" x2="60.84" y2="73.54"/>
<line class="st0" x1="52.81" y1="74.9" x2="68.59" y2="72.22"/>
</svg>
