<?xml version="1.0" encoding="utf-8"?>
<!-- Generator: Adobe Illustrator 23.1.0, SVG Export Plug-In . SVG Version: 6.00 Build 0)  -->
<svg version="1.1" id="Layer_1" xmlns="http://www.w3.org/2000/svg" xmlns:xlink="http://www.w3.org/1999/xlink" x="0px" y="0px"
	 viewBox="0 0 90 90" style="enable-background:new 0 0 90 90;" xml:space="preserve">
<style type="text/css">
	.st0{fill:#FFFFFF;stroke:#000000;stroke-width:2;stroke-miterlimit:10;}
	.st1{fill:#040000;stroke:#000000;stroke-width:2;stroke-miterlimit:10;}
</style>
<path class="st0" d="M47.83,80.33h-6.64c-11.51,0-20.94-9.42-20.94-20.94V32.84c0-11.51,9.42-20.94,20.94-20.94h6.64
	c11.51,0,20.94,9.42,20.94,20.94v26.55C68.77,70.9,59.34,80.33,47.83,80.33z"/>
<circle class="st0" cx="44.51" cy="37.38" r="16.54"/>
<path class="st0" d="M66.3,69.21c0.3-0.59-26.98-16.13-26.98-16.13"/>
<path class="st0" d="M37.75,34.83"/>
<circle class="st1" cx="39.33" cy="34.4" r="1.57"/>
<circle class="st1" cx="48.67" cy="34.4" r="1.57"/>
<path class="st0" d="M37.75,40.04c0,0,1.26,4.53,6.76,4.79s6.3-4.79,6.3-4.79"/>
</svg>
