<?xml version="1.0" encoding="utf-8"?>
<!-- Generator: Adobe Illustrator 23.1.0, SVG Export Plug-In . SVG Version: 6.00 Build 0)  -->
<svg version="1.1" id="Layer_1" xmlns="http://www.w3.org/2000/svg" xmlns:xlink="http://www.w3.org/1999/xlink" x="0px" y="0px"
	 viewBox="0 0 90 90" style="enable-background:new 0 0 90 90;" xml:space="preserve">
<style type="text/css">
	.st0{fill:#CD9E66;stroke:#000000;stroke-width:2;stroke-linejoin:round;stroke-miterlimit:10;}
	.st1{fill:#E6B87C;stroke:#000000;stroke-width:2;stroke-linejoin:round;stroke-miterlimit:10;}
	.st2{fill:#EFD9AB;stroke:#000000;stroke-width:2;stroke-linecap:round;stroke-linejoin:round;stroke-miterlimit:10;}
	.st3{fill:#47BCC6;stroke:#000000;stroke-width:2;stroke-miterlimit:10;}
	.st4{fill:#ABDDF5;stroke:#000000;stroke-width:2;stroke-miterlimit:10;}
	.st5{fill:#64C5DA;stroke:#000000;stroke-width:2;stroke-miterlimit:10;}
	.st6{fill:#64C5DA;stroke:#000000;stroke-width:2;stroke-linejoin:round;stroke-miterlimit:10;}
	.st7{fill:#ABDDF5;stroke:#000000;stroke-width:2;stroke-linejoin:round;stroke-miterlimit:10;}
</style>
<polygon class="st0" points="3.97,66.27 45.43,78.16 45.43,43.38 3.97,28.7 "/>
<polygon class="st1" points="45.43,78.16 86.89,64.65 86.89,28.92 45.43,43.38 "/>
<polygon class="st2" points="3.97,28.77 45.43,12.34 86.89,29 45.43,43.46 "/>
<polygon class="st3" points="20.53,34.64 21.07,70.77 33.77,74.56 33.77,38.84 "/>
<path class="st4" d="M49,24.31c0,0,5.31-10.1,11.01-9.88c5.7,0.22,11.89,4.94,11.89,4.94s-3.42,8.17-15.06,8.53"/>
<polyline class="st5" points="58.82,38.79 58.82,73.33 70.71,69.84 70.71,34.64 "/>
<polygon class="st4" points="21.07,22.07 58.82,38.79 70.71,34.64 32.5,17.54 "/>
<path class="st4" d="M34.66,28.65c0,0-18.11-0.45-16.55,7.8l10.98,4.4c0,0,6.13,3.55,18.25-7.04
	C47.33,33.81,47.09,26.57,34.66,28.65z"/>
<path class="st6" d="M55.89,27.89c0,0,10.4,0.65,16.01-8.53C71.9,19.36,67.18,15.28,55.89,27.89z"/>
<path class="st7" d="M34.66,28.65c0,0,4.9-7.76,13.15-5.39c4.12,1.19,6.5,2.53,7.85,3.58c1.35,1.05,1.66,1.8,1.66,1.8l-9.81,5.13
	C47.51,33.78,42.68,27.53,34.66,28.65z"/>
<path class="st5" d="M47.51,33.78c0,0-14.12,0.03-15.68,5.75s9.56-1.27,9.56-1.27L47.51,33.78z"/>
</svg>
