<?xml version="1.0" encoding="utf-8"?>
<!-- Generator: Adobe Illustrator 23.1.0, SVG Export Plug-In . SVG Version: 6.00 Build 0)  -->
<svg version="1.1" id="Layer_1" xmlns="http://www.w3.org/2000/svg" xmlns:xlink="http://www.w3.org/1999/xlink" x="0px" y="0px"
	 viewBox="0 0 90 90" style="enable-background:new 0 0 90 90;" xml:space="preserve">
<style type="text/css">
	.st0{fill:#FFFFFF;stroke:#000000;stroke-width:2;stroke-miterlimit:10;}
	.st1{fill:#FFFFFF;stroke:#000000;stroke-width:2;stroke-linecap:round;stroke-miterlimit:10;}
</style>
<path class="st0" d="M76.47,77.9H13.66V51.36v-6.4c0-6.6,5.4-12,12-12h38.81c6.6,0,12,5.4,12,12V77.9z"/>
<path class="st0" d="M13.66,48.53c0,0,2.81,3.06,8.68,4.34c0,0,3.57,0.51,6.38-4.34s8.68,0,8.68,0s4.34,4.37,7.66,4.36
	c0,0,5.11-1.55,5.87-4.61c0,0,3.57-4.6,8.17-0.51c0,0,1.79,3.86,3.83,5.12c2.04,1.26,5.87-1.95,7.4-3.41s6.13-0.81,6.13,0.14"/>
<line class="st1" x1="30.59" y1="32.96" x2="30.59" y2="19.26"/>
<line class="st1" x1="30.59" y1="12.02" x2="30.59" y2="15.34"/>
<line class="st1" x1="59.53" y1="32.96" x2="59.53" y2="19.26"/>
<line class="st1" x1="59.53" y1="12.02" x2="59.53" y2="15.34"/>
<line class="st1" x1="45.06" y1="32.96" x2="45.06" y2="19.26"/>
<line class="st1" x1="45.06" y1="12.02" x2="45.06" y2="15.34"/>
<path class="st1" d="M55.06,32.96"/>
</svg>
