<?xml version="1.0" encoding="utf-8"?>
<!-- Generator: Adobe Illustrator 23.1.0, SVG Export Plug-In . SVG Version: 6.00 Build 0)  -->
<svg version="1.1" id="Layer_1" xmlns="http://www.w3.org/2000/svg" xmlns:xlink="http://www.w3.org/1999/xlink" x="0px" y="0px"
	 viewBox="0 0 90 90" style="enable-background:new 0 0 90 90;" xml:space="preserve">
<style type="text/css">
	.st0{fill:#E0609E;stroke:#000000;stroke-width:2;stroke-miterlimit:10;}
	.st1{fill:#FFFFFF;stroke:#000000;stroke-width:2;stroke-linecap:round;stroke-miterlimit:10;}
	.st2{fill:#6F441F;stroke:#000000;stroke-width:2;stroke-miterlimit:10;}
</style>
<path class="st0" d="M76.47,77.9H13.66V51.36v-6.4c0-6.6,5.4-12,12-12h38.81c6.6,0,12,5.4,12,12V77.9z"/>
<line class="st1" x1="30.59" y1="32.96" x2="30.59" y2="19.26"/>
<line class="st1" x1="30.59" y1="12.02" x2="30.59" y2="15.34"/>
<line class="st1" x1="59.53" y1="32.96" x2="59.53" y2="19.26"/>
<line class="st1" x1="59.53" y1="12.02" x2="59.53" y2="15.34"/>
<line class="st1" x1="45.06" y1="32.96" x2="45.06" y2="19.26"/>
<line class="st1" x1="45.06" y1="12.02" x2="45.06" y2="15.34"/>
<path class="st2" d="M76.47,49.63c-0.06,0.95-4.6-1.6-6.13-0.14s-5.36,4.67-7.4,3.41c-2.04-1.26-3.83-5.12-3.83-5.12
	c-4.6-4.09-8.17,0.51-8.17,0.51c-0.77,3.06-5.87,4.61-5.87,4.61c-3.32,0.02-7.66-4.36-7.66-4.36s-5.87-4.85-8.68,0
	s-6.38,4.34-6.38,4.34c-5.87-1.28-8.68-4.34-8.68-4.34s-1.37-14.62,11-15.57s40.9,0,40.9,0S77.58,32.97,76.47,49.63z"/>
<path class="st1" d="M55.06,32.96"/>
</svg>
