<?xml version="1.0" encoding="utf-8"?>
<!-- Generator: Adobe Illustrator 23.1.0, SVG Export Plug-In . SVG Version: 6.00 Build 0)  -->
<svg version="1.1" id="Layer_1" xmlns="http://www.w3.org/2000/svg" xmlns:xlink="http://www.w3.org/1999/xlink" x="0px" y="0px"
	 viewBox="0 0 90 90" style="enable-background:new 0 0 90 90;" xml:space="preserve">
<style type="text/css">
	.st0{fill:#FFFFFF;stroke:#000000;stroke-width:2;stroke-miterlimit:10;}
</style>
<rect x="20.99" y="18.86" class="st0" width="36.79" height="57.08"/>
<rect x="20.99" y="26.71" class="st0" width="36.79" height="40.85"/>
<rect x="29.69" y="9.12" class="st0" width="19.7" height="9.74"/>
<g>
	<path class="st0" d="M51.98,80.16L51.98,80.16c-4.38-3.08-5.45-9.18-2.38-13.57l5.28-7.53l5.28-7.53
		c3.08-4.38,9.18-5.45,13.57-2.38l0,0c4.38,3.08,5.45,9.18,2.38,13.57L65.54,77.78C62.46,82.17,56.36,83.24,51.98,80.16z"/>
	<line class="st0" x1="54.88" y1="59.07" x2="70.83" y2="70.25"/>
</g>
<line class="st0" x1="39.39" y1="36.76" x2="39.54" y2="59.71"/>
<line class="st0" x1="29.69" y1="47.13" x2="49.4" y2="47.13"/>
</svg>
