<?xml version="1.0" encoding="utf-8"?>
<!-- Generator: Adobe Illustrator 23.1.0, SVG Export Plug-In . SVG Version: 6.00 Build 0)  -->
<svg version="1.1" id="Layer_1" xmlns="http://www.w3.org/2000/svg" xmlns:xlink="http://www.w3.org/1999/xlink" x="0px" y="0px"
	 viewBox="0 0 90 90" style="enable-background:new 0 0 90 90;" xml:space="preserve">
<style type="text/css">
	.st0{fill:#6694AE;stroke:#000000;stroke-width:2;stroke-linecap:round;stroke-linejoin:round;stroke-miterlimit:10;}
	.st1{fill:#FFFFFF;stroke:#000000;stroke-width:2;stroke-linecap:round;stroke-linejoin:round;stroke-miterlimit:10;}
	.st2{fill:#828282;stroke:#000000;stroke-width:2;stroke-linecap:round;stroke-linejoin:round;stroke-miterlimit:10;}
	.st3{stroke:#000000;stroke-miterlimit:10;}
	.st4{fill:none;stroke:#000000;stroke-width:2;stroke-linecap:round;stroke-linejoin:round;stroke-miterlimit:10;}
</style>
<path class="st0" d="M71.42,64.14H18.74c-4.83,0-8.78-3.95-8.78-8.78v-3.89V23.98c0-4.83,3.95-8.78,8.78-8.78h52.68
	c4.83,0,8.78,3.95,8.78,8.78v31.37C80.2,60.19,76.25,64.14,71.42,64.14z"/>
<line class="st1" x1="9.96" y1="51.47" x2="80.2" y2="51.47"/>
<path class="st2" d="M80.2,52.31v3.05c0,4.83-3.95,8.78-8.78,8.78H18.74c-4.83,0-8.78-3.95-8.78-8.78v-3.89H80.2V52.31z"/>
<line class="st1" x1="30.98" y1="75.94" x2="60.63" y2="75.94"/>
<line class="st1" x1="36.16" y1="75.94" x2="39.04" y2="64.14"/>
<path class="st1" d="M55.16,75.94c0,0-4.32-11.8-3.45-11.8"/>
<circle class="st3" cx="45.08" cy="42.29" r="1.78"/>
<path class="st4" d="M36.95,37.85c0,0,3.53-3.74,8.13-3.74s7.56,3.74,7.56,3.74"/>
<path class="st4" d="M31.13,31.8c0,0,5.98-4.86,13.8-4.86s12.82,4.86,12.82,4.86"/>
</svg>
