<?xml version="1.0" encoding="utf-8"?>
<!-- Generator: Adobe Illustrator 23.1.0, SVG Export Plug-In . SVG Version: 6.00 Build 0)  -->
<svg version="1.1" id="Layer_1" xmlns="http://www.w3.org/2000/svg" xmlns:xlink="http://www.w3.org/1999/xlink" x="0px" y="0px"
	 viewBox="0 0 90 90" style="enable-background:new 0 0 90 90;" xml:space="preserve">
<style type="text/css">
	.st0{fill:#59A1D9;stroke:#000000;stroke-width:2;stroke-miterlimit:10;}
	.st1{fill:#FAE3C4;stroke:#000000;stroke-width:2;stroke-miterlimit:10;}
	.st2{stroke:#000000;stroke-width:2;stroke-linecap:round;stroke-linejoin:round;stroke-miterlimit:10;}
	.st3{fill:none;stroke:#000000;stroke-width:2;stroke-linecap:round;stroke-miterlimit:10;}
	.st4{fill:#956134;stroke:#000000;stroke-width:2;stroke-miterlimit:10;}
	.st5{fill:#956134;stroke:#000000;stroke-width:2;stroke-linejoin:round;stroke-miterlimit:10;}
	.st6{fill:#EB6272;stroke:#000000;stroke-width:2;stroke-miterlimit:10;}
	.st7{fill:#FAE3C4;stroke:#000000;stroke-width:2;stroke-linecap:round;stroke-linejoin:round;stroke-miterlimit:10;}
	.st8{fill:#FFFFFF;stroke:#000000;stroke-width:2;stroke-linecap:round;stroke-linejoin:round;stroke-miterlimit:10;}
</style>
<g>
	<path class="st0" d="M31.9,79.26c0-19.14,11.8-34.65,26.36-34.65s26.36,15.51,26.36,34.65H31.9z"/>
	<path class="st1" d="M79.65,32c0-3.01-2.32-5.47-5.26-5.72c-2.4-7.2-9.18-12.4-17.18-12.4c-7.82,0-14.46,4.96-17,11.91c0,0,0,0,0,0
		c-3.17,0-5.74,2.57-5.74,5.74c0,3.06,2.4,5.56,5.41,5.73c2.26,7.44,9.16,12.86,17.33,12.86c8,0,14.78-5.2,17.18-12.4
		C77.33,37.48,79.65,35.01,79.65,32z"/>
	<circle class="st2" cx="61.65" cy="29.51" r="1.33"/>
	<circle class="st2" cx="52.33" cy="29.51" r="1.33"/>
	<path class="st3" d="M48.09,36.45c0,0,1.94,5.33,8.08,5.43s7.55-4.48,7.55-4.48"/>
	<line class="st3" x1="61.37" y1="36.14" x2="66.02" y2="38.15"/>
	<path class="st4" d="M40.2,25.79c0,0,15.06-0.66,20.12-4.06c0,0,6.88,4.85,14.06,4.55c0,0,0.59-10.37-10.67-12.4
		C63.72,13.89,44.46,6.54,40.2,25.79z"/>
</g>
<path class="st5" d="M12.29,44.19c0,0-10.12,11.14,6.01,9.04C34.43,51.15,12.29,44.19,12.29,44.19z"/>
<path class="st5" d="M46.49,43.74c0,0,9.8,13.95-6.15,8.64S46.49,43.74,46.49,43.74z"/>
<path class="st6" d="M5.72,79.77c0-16.1,11.04-29.15,24.65-29.15s24.65,13.05,24.65,29.15H5.72z"/>
<path class="st7" d="M51.75,38.02c0-3.01-2.32-5.47-5.26-5.72c-2.4-7.2-10.69-10.65-18.69-10.65c-7.82,0-12.95,3.22-15.49,10.16
	c0,0,0,0,0,0c-3.17,0-5.74,2.57-5.74,5.74c0,3.06,2.4,5.56,5.41,5.73c2.26,7.44,9.16,12.86,17.33,12.86c8,0,14.78-5.2,17.18-12.4
	C49.44,43.49,51.75,41.03,51.75,38.02z"/>
<path class="st5" d="M12.3,31.8l11.6-4.75l22.59,5.24c0,0-2.16-13-21.06-11.97C25.43,20.32,13.67,21.65,12.3,31.8z"/>
<path class="st8" d="M11.97,43.28"/>
<circle class="st2" cx="23.9" cy="38.24" r="1.33"/>
<circle class="st2" cx="33.23" cy="38.24" r="1.33"/>
<path class="st3" d="M37.47,45.19c0,0-1.94,5.33-8.08,5.43s-7.55-4.48-7.55-4.48"/>
<line class="st3" x1="24.19" y1="44.88" x2="19.54" y2="46.89"/>
</svg>
