<?xml version="1.0" encoding="utf-8"?>
<!-- Generator: Adobe Illustrator 23.1.0, SVG Export Plug-In . SVG Version: 6.00 Build 0)  -->
<svg version="1.1" id="Layer_1" xmlns="http://www.w3.org/2000/svg" xmlns:xlink="http://www.w3.org/1999/xlink" x="0px" y="0px"
	 viewBox="0 0 90 90" style="enable-background:new 0 0 90 90;" xml:space="preserve">
<style type="text/css">
	.st0{fill:#C9A063;stroke:#000000;stroke-width:2;stroke-miterlimit:10;}
	.st1{fill:none;stroke:#000000;stroke-width:2;stroke-miterlimit:10;}
	.st2{fill:#FFFFFF;stroke:#000000;stroke-width:2;stroke-miterlimit:10;}
	.st3{fill:#6A3906;stroke:#000000;stroke-width:2;stroke-miterlimit:10;}
</style>
<polygon class="st0" points="22.57,16.61 65.11,16.61 52.82,38.2 33.52,38.2 "/>
<path class="st1" d="M63.25,64.1c0,0,12.82-0.17,12.82-8.81s-4.7-11.66-16.58-10.15"/>
<line class="st2" x1="17.87" y1="38.36" x2="67.3" y2="38.36"/>
<path class="st2" d="M57.61,77.06H28.99c-4.52,0-7.3-4.6-6.28-9.74l5.73-28.83h29.72l5.73,28.83
	C64.91,72.46,62.13,77.06,57.61,77.06z"/>
<path class="st2" d="M57.61,77.06H28.99c-4.52,0-7.3-4.6-6.28-9.74l5.73-28.83h29.72l5.73,28.83
	C64.91,72.46,62.13,77.06,57.61,77.06z"/>
<line class="st2" x1="25.1" y1="55.29" x2="61.5" y2="55.29"/>
<path class="st3" d="M61.5,55.29H25.1l0,0l-2.39,12.03c-1.02,5.14,1.76,9.74,6.28,9.74h28.62c4.52,0,7.3-4.6,6.28-9.74L61.5,55.29z"
	/>
</svg>
