<?xml version="1.0" encoding="utf-8"?>
<!-- Generator: Adobe Illustrator 23.1.0, SVG Export Plug-In . SVG Version: 6.00 Build 0)  -->
<svg version="1.1" id="Layer_1" xmlns="http://www.w3.org/2000/svg" xmlns:xlink="http://www.w3.org/1999/xlink" x="0px" y="0px"
	 viewBox="0 0 90 90" style="enable-background:new 0 0 90 90;" xml:space="preserve">
<style type="text/css">
	.st0{fill:#FFFFFF;stroke:#000000;stroke-width:2;stroke-miterlimit:10;}
</style>
<g>
	<path class="st0" d="M43.67,27.32c0,0,0.26-12.68-14.02-15.06v17.64L43.67,27.32z"/>
	<path class="st0" d="M40.76,32.11c0,0-4.76-14.55,14.82-19.84v13.75L40.76,32.11z"/>
	<path class="st0" d="M58.96,21.39c0,0-10.91-2.12-18.8,7.08s0.79,23.21,0.79,23.21s11.21,2.6,13.87-4.12S58.96,21.39,58.96,21.39z"
		/>
	<line class="st0" x1="44.41" y1="48.69" x2="44.41" y2="82.65"/>
	<path class="st0" d="M25.94,21.09c0,0,14.09-2.02,18.21,6.79s2.91,24.31,2.91,24.31s-17.37,2-19.22-9.21
		C25.99,31.76,25.94,21.09,25.94,21.09z"/>
	<path class="st0" d="M43.67,61.73c0,0-3.97-9.14-17.73-6.81C25.94,54.92,32.82,66.22,43.67,61.73z"/>
	<path class="st0" d="M44.41,66.77c0,0,8.79-5.56,19.63,0c0,0-3.76,7.16-9.82,7.02c-6.06-0.14-9.82-2.26-9.82-2.26V66.77z"/>
</g>
</svg>
